<svg width="152" height="18" viewBox="0 0 152 18" fill="none" xmlns="http://www.w3.org/2000/svg">
<path d="M0 11.8044C0 8.09648 2.7223 5.60886 6.47718 5.60886C10.2086 5.60886 12.9309 8.09648 12.9309 11.8044C12.9309 15.5124 10.2086 17.9765 6.47718 17.9765C2.7223 17.9765 0 15.5124 0 11.8044ZM3.63755 11.781C3.63755 13.5645 4.78748 14.7379 6.47718 14.7379C8.14342 14.7379 9.29335 13.5645 9.29335 11.781C9.29335 10.0209 8.14342 8.84746 6.47718 8.84746C4.78748 8.84746 3.63755 10.0209 3.63755 11.781Z" fill="white"/>
<path d="M18.6402 17.6949H15.0262V0L18.6402 5.5854V17.6949Z" fill="white"/>
<path d="M24.8952 18C22.4076 18 20.8587 16.545 20.8587 14.2451C20.8587 12.086 22.3841 10.7484 25.2003 10.5372L28.4858 10.279V10.0913C28.4858 8.94133 27.7818 8.33116 26.491 8.33116C24.9656 8.33116 24.1442 8.91786 24.1442 9.97392H21.1403C21.1403 7.32203 23.3228 5.5854 26.6788 5.5854C30.0817 5.5854 32.006 7.48631 32.006 10.8422V17.6949H28.8144L28.5797 16.146C28.2042 17.2256 26.6553 18 24.8952 18ZM26.1625 15.3246C27.5471 15.3246 28.5093 14.6441 28.5093 13.3064V12.6728L26.6788 12.837C25.1064 12.9778 24.5432 13.3299 24.5432 14.0808C24.5432 14.9257 25.0595 15.3246 26.1625 15.3246Z" fill="white"/>
<path d="M36.9063 17.6949L33.1279 5.96089H36.9297L38.0093 9.78618C38.2909 10.7953 38.549 11.9452 38.7368 13.1186C38.948 11.8748 39.0653 11.4289 39.5816 9.78618L40.7785 5.96089H44.4865L45.5895 9.78618C45.7068 10.1851 46.27 12.3677 46.3874 13.1186C46.5282 12.2738 47.0914 10.2086 47.2087 9.78618L48.3352 5.96089H52.1605L48.0536 17.6949H44.6977L43.5712 13.9635C42.9845 12.0391 42.6794 10.6545 42.609 10.1617C42.5151 10.6545 42.3039 11.5698 41.5529 14.0339L40.4265 17.6949H36.9063Z" fill="white"/>
<path d="M56.7054 18C54.2178 18 52.6689 16.545 52.6689 14.2451C52.6689 12.086 54.1943 10.7484 57.0105 10.5372L60.296 10.279V10.0913C60.296 8.94133 59.592 8.33116 58.3013 8.33116C56.7758 8.33116 55.9544 8.91786 55.9544 9.97392H52.9505C52.9505 7.32203 55.1331 5.5854 58.489 5.5854C61.8919 5.5854 63.8162 7.48631 63.8162 10.8422V17.6949H60.6246L60.3899 16.146C60.0144 17.2256 58.4655 18 56.7054 18ZM57.9727 15.3246C59.3573 15.3246 60.3195 14.6441 60.3195 13.3064V12.6728L58.489 12.837C56.9166 12.9778 56.3534 13.3299 56.3534 14.0808C56.3534 14.9257 56.8697 15.3246 57.9727 15.3246Z" fill="white"/>
<path d="M70.0225 17.6949H66.4084V0L70.0225 5.5854V17.6949Z" fill="white"/>
<path d="M78.1783 18C74.6347 18 72.1001 15.4185 72.1001 11.8044C72.1001 8.14342 74.5643 5.5854 78.1079 5.5854C81.7924 5.5854 84.0923 8.00261 84.0923 11.8279V12.7432L75.5734 12.7901C75.7846 14.339 76.6529 15.0665 78.2487 15.0665C79.6099 15.0665 80.5721 14.5737 80.8302 13.7288H84.1392C83.7168 16.3338 81.3935 18 78.1783 18ZM78.1314 8.5189C76.6998 8.5189 75.9019 9.15254 75.6203 10.5606H80.5017C80.5017 9.31682 79.5864 8.5189 78.1314 8.5189Z" fill="white"/>
<path d="M85.5988 11.781C85.5988 8.16688 88.0864 5.5854 91.6066 5.5854C95.0799 5.5854 97.3798 7.48631 97.6145 10.5606H93.9769C93.7188 9.38722 92.9913 8.82399 91.7475 8.82399C90.222 8.82399 89.2364 9.97392 89.2364 11.781C89.2364 13.6584 90.1516 14.7614 91.7005 14.7614C92.9678 14.7614 93.7422 14.1747 93.9769 13.0248H97.6145C97.3798 15.9817 94.986 18 91.7005 18C87.9926 18 85.5988 15.5359 85.5988 11.781Z" fill="white"/>
<path d="M98.96 11.8044C98.96 8.09648 101.682 5.60886 105.437 5.60886C109.169 5.60886 111.891 8.09648 111.891 11.8044C111.891 15.5124 109.169 17.9765 105.437 17.9765C101.682 17.9765 98.96 15.5124 98.96 11.8044ZM102.598 11.781C102.598 13.5645 103.748 14.7379 105.437 14.7379C107.103 14.7379 108.253 13.5645 108.253 11.781C108.253 10.0209 107.103 8.84746 105.437 8.84746C103.748 8.84746 102.598 10.0209 102.598 11.781Z" fill="white"/>
<path d="M118.914 18C115.535 18 113.353 15.6063 113.353 11.8983C113.353 8.16688 115.582 5.5854 119.149 5.5854C120.604 5.5854 121.989 6.1721 122.669 7.04042V0L126.283 5.5854V17.6949H122.881L122.693 16.193C122.059 17.2725 120.604 18 118.914 18ZM119.783 14.691C121.473 14.691 122.646 13.5176 122.646 11.7575C122.646 9.99739 121.473 8.82399 119.783 8.82399C118.07 8.82399 116.99 10.0209 116.99 11.7575C116.99 13.4941 118.07 14.691 119.783 14.691Z" fill="white"/>
<path d="M134.442 18C130.898 18 128.364 15.4185 128.364 11.8044C128.364 8.14342 130.828 5.5854 134.372 5.5854C138.056 5.5854 140.356 8.00261 140.356 11.8279V12.7432L131.837 12.7901C132.048 14.339 132.917 15.0665 134.512 15.0665C135.874 15.0665 136.836 14.5737 137.094 13.7288H140.403C139.981 16.3338 137.657 18 134.442 18ZM134.395 8.5189C132.964 8.5189 132.166 9.15254 131.884 10.5606H136.765C136.765 9.31682 135.85 8.5189 134.395 8.5189Z" fill="white"/>
<path d="M141.651 13.987H145.078C145.125 14.8083 145.735 15.3012 146.838 15.3012C147.964 15.3012 148.481 14.9022 148.481 14.292C148.481 13.94 148.293 13.5645 147.424 13.3768L145.265 12.9074C143.106 12.4381 142.05 11.4993 142.05 9.43416C142.05 6.99348 144.139 5.5854 146.955 5.5854C149.677 5.5854 151.578 7.18123 151.578 9.5515H148.152C148.152 8.75359 147.659 8.21382 146.791 8.21382C145.969 8.21382 145.453 8.63624 145.453 9.26988C145.453 9.80965 145.899 10.1147 146.72 10.3025L148.903 10.7718C150.827 11.1943 151.883 12.0861 151.883 13.9635C151.883 16.4746 149.748 18 146.697 18C143.599 18 141.651 16.3572 141.651 13.987Z" fill="white"/>
</svg>
