<svg width="41" height="32" viewBox="0 0 41 32" fill="none" xmlns="http://www.w3.org/2000/svg">
<g clip-path="url(#clip0_66_135)">
<path d="M8.34071 0C6.04941 0 4.35388 2.00549 4.4298 4.18039C4.50275 6.2698 4.408 8.97616 3.72675 11.1831C3.04345 13.3964 1.88769 14.7984 0 14.9785V17.0108C1.88769 17.1909 3.04345 18.5929 3.72675 20.8064C4.408 23.0133 4.50275 25.7194 4.4298 27.8089C4.35388 29.9835 6.04941 31.9893 8.34102 31.9893H31.8191C34.1106 31.9893 35.8056 29.9838 35.7297 27.8089C35.6569 25.7195 35.7515 23.0133 36.4328 20.8064C37.1166 18.5931 38.2692 17.1907 40.1569 17.0108V14.9785C38.2692 14.7984 37.1166 13.3964 36.4329 11.1831C35.7515 8.97647 35.6569 6.26996 35.7297 4.18039C35.8056 2.0058 34.1106 0 31.8191 0H8.34039H8.34071ZM27.2251 19.6915C27.2251 22.6863 24.9914 24.5024 21.2844 24.5024H14.9738C14.7933 24.5024 14.6202 24.4307 14.4926 24.303C14.365 24.1754 14.2933 24.0023 14.2933 23.8218V8.16753C14.2933 8.07814 14.3109 7.98961 14.3451 7.90702C14.3793 7.82442 14.4294 7.74937 14.4926 7.68615C14.5558 7.62293 14.6309 7.57278 14.7135 7.53857C14.796 7.50436 14.8846 7.48675 14.974 7.48675H21.2483C24.3393 7.48675 26.3678 9.16125 26.3678 11.7319C26.3678 13.5363 25.0031 15.1517 23.2646 15.4345V15.5288C25.6315 15.7884 27.2251 17.4275 27.2251 19.6915ZM20.5961 9.64439H16.9981V14.7267H20.0287C22.3713 14.7267 23.6632 13.7834 23.6632 12.0971C23.6632 10.517 22.5522 9.64439 20.5961 9.64439ZM16.9981 16.7434V22.3442H20.7286C23.1675 22.3442 24.4598 21.3655 24.4598 19.5261C24.4598 17.6864 23.1316 16.7431 20.5718 16.7431H16.9981V16.7434Z" fill="#7E13F8"/>
</g>
<defs>
<clipPath id="clip0_66_135">
<rect width="40.1569" height="32" fill="white"/>
</clipPath>
</defs>
</svg>
