<svg width="34" height="34" viewBox="0 0 34 34" fill="none" xmlns="http://www.w3.org/2000/svg">
<path d="M6.2709 28.9011L3.88452 2.125H30.1155L27.726 28.8968L16.9841 31.875L6.2709 28.9011Z" fill="#1572B6"/>
<path d="M17 29.599L25.6806 27.1924L27.7227 4.3147H17V29.599Z" fill="#33A9DC"/>
<path d="M17 14.0154H21.3456L21.6452 10.6526H17V7.36841H25.2344L25.1558 8.24922L24.3493 17.2996H17V14.0154Z" fill="white"/>
<path d="M17.0202 22.5441L17.0053 22.5484L13.3482 21.5602L13.1144 18.9412H9.8175L10.2776 24.0975L17.0043 25.9653L17.0202 25.9611V22.5441Z" fill="#EBEBEB"/>
<path d="M21.0662 17.1604L20.6709 21.5581L17.0085 22.5462V25.9632L23.7405 24.0975L23.7904 23.5428L24.361 17.1604H21.0662Z" fill="white"/>
<path d="M17.0117 7.36841V10.6526H9.07904L9.01317 9.91416L8.86335 8.24922L8.78473 7.36841H17.0117ZM17 14.0154V17.2996H13.3885L13.3227 16.5612L13.1739 14.8962L13.0953 14.0154H17Z" fill="#EBEBEB"/>
</svg>
