<svg width="34" height="34" viewBox="0 0 34 34" fill="none" xmlns="http://www.w3.org/2000/svg">
<path d="M6.27086 28.9011L3.88342 2.125H30.1165L27.7259 28.8968L16.984 31.875L6.27086 28.9011Z" fill="#E44F26"/>
<path d="M17 29.599L25.6806 27.1924L27.7227 4.3147H17V29.599Z" fill="#F1662A"/>
<path d="M17 14.2449H12.6544L12.3548 10.8821H17V7.5979H8.76562L8.84425 8.47978L9.65069 17.5291H17V14.2449ZM17 22.7736L16.9851 22.7778L13.328 21.7908L13.0943 19.1717H9.79731L10.2574 24.327L16.9851 26.1948L17 26.1906V22.7736Z" fill="#EBEBEB"/>
<path d="M16.9883 14.2449V17.5291H21.0322L20.6518 21.7887L16.9883 22.7768V26.1938L23.7213 24.327L23.7702 23.7723L24.5416 15.1268L24.6223 14.2449H16.9883ZM16.9883 7.5979V10.8821H24.9209L24.9868 10.1447L25.1366 8.47978L25.2152 7.5979H16.9883Z" fill="white"/>
</svg>
