<svg width="33" height="32" viewBox="0 0 33 32" fill="none" xmlns="http://www.w3.org/2000/svg">
<g clip-path="url(#clip0_66_137)">
<path d="M24.6569 0H7.65686C3.51472 0 0.15686 3.35786 0.15686 7.5V24.5C0.15686 28.6421 3.51472 32 7.65686 32H24.6569C28.799 32 32.1569 28.6421 32.1569 24.5V7.5C32.1569 3.35786 28.799 0 24.6569 0Z" fill="url(#paint0_linear_66_137)"/>
<path d="M10.0616 8.59262C8.81337 10.4199 8.96887 12.7967 9.91987 14.7359L9.98987 14.874L10.0371 14.9615C10.0459 14.9785 10.0559 14.9952 10.065 15.0117C10.0815 15.0425 10.098 15.072 10.1122 15.1022L10.2032 15.2612L10.2551 15.3487L10.3607 15.517L10.408 15.5879C10.4552 15.6635 10.5086 15.7386 10.5611 15.8127L10.5654 15.8186C10.5736 15.8305 10.5829 15.8422 10.5891 15.8541C10.6344 15.9179 10.6835 15.9807 10.7307 16.0431L10.7832 16.1111L10.912 16.2724L10.9611 16.3324C11.0197 16.403 11.0796 16.4727 11.1407 16.5412L11.1445 16.545C11.1469 16.548 11.1492 16.5497 11.1516 16.5527C11.2109 16.6196 11.2716 16.685 11.334 16.7489L11.3926 16.8089L11.5384 16.9545L11.5979 17.0121C11.6634 17.0749 11.73 17.1365 11.7975 17.1971L11.8354 17.2301L12.0166 17.3861L12.0916 17.4471L12.2429 17.5652L12.3237 17.6279L12.5549 17.7967C12.5607 17.8007 12.5659 17.805 12.5719 17.809C12.6261 17.8469 12.6812 17.8835 12.7365 17.9201L12.8079 17.9685L13.0659 18.1292L13.1372 18.1701L13.331 18.2806C13.3664 18.3 13.4026 18.3185 13.438 18.3369L13.5765 18.4077L13.6084 18.4234L13.6651 18.4512L13.8847 18.5547L13.9314 18.5784C14.0161 18.616 14.1015 18.6521 14.1875 18.6867L14.2499 18.7119L14.4915 18.803L14.5217 18.8139C14.611 18.8454 14.7008 18.8753 14.7911 18.9037L14.8561 18.9235C14.9506 18.9519 15.0392 18.9857 15.1342 19.0039C21.1705 20.1276 22.9244 15.3119 22.9244 15.3119C21.4517 17.2659 18.8377 17.7809 16.3612 17.2075C16.2674 17.1839 16.1764 17.1562 16.0847 17.1286L16.0157 17.105C15.9266 17.0771 15.8379 17.0477 15.7497 17.0169L15.7131 17.0034C15.6345 16.975 15.5562 16.9455 15.4785 16.9147L15.4124 16.8882C15.3272 16.8541 15.2428 16.8184 15.159 16.781L15.1085 16.7584L14.8949 16.6567L14.8335 16.6265C14.778 16.5986 14.7228 16.57 14.668 16.5407L14.5577 16.4816C14.4911 16.4451 14.425 16.4074 14.3597 16.3685L14.2929 16.3306C14.206 16.2784 14.12 16.2249 14.0349 16.17C14.0112 16.1546 13.9885 16.1384 13.9651 16.1227L13.7815 15.9985L13.7225 15.956L13.5489 15.8284L13.4717 15.7692L13.3151 15.6445L13.2452 15.5879L13.0502 15.4225C13.0428 15.4158 13.0349 15.4097 13.0266 15.4042C12.9573 15.342 12.889 15.2786 12.8216 15.2142L12.7639 15.1576L12.6164 15.0106L12.5589 14.9515C12.4974 14.8877 12.4372 14.8228 12.3781 14.7569C12.3752 14.7535 12.3719 14.7505 12.3691 14.7474C12.3066 14.6777 12.2455 14.6067 12.1857 14.5347L12.1377 14.4766L12.0055 14.3105L11.957 14.2491L11.8046 14.0424C10.4296 12.1321 9.93812 9.49762 11.0344 7.33387L10.0616 8.59262ZM13.9365 7.05312C13.034 8.37624 13.0829 10.1469 13.787 11.5461C13.9047 11.781 14.0381 12.0078 14.1862 12.2249C14.3215 12.4222 14.4715 12.6574 14.651 12.8156C14.716 12.8865 14.784 12.9574 14.8535 13.0297C14.871 13.0479 14.889 13.0651 14.9069 13.0834C14.9744 13.1502 15.0434 13.2156 15.1139 13.2792C15.1167 13.2816 15.1194 13.2844 15.1224 13.2867C15.2018 13.3573 15.2831 13.4259 15.366 13.4924L15.4209 13.5357C15.5034 13.6007 15.5877 13.6634 15.6736 13.7239C15.6759 13.7257 15.6782 13.7276 15.6807 13.7294C15.7185 13.756 15.7575 13.7812 15.796 13.8067C15.8145 13.8191 15.8319 13.8321 15.8504 13.8436C15.912 13.884 15.9745 13.923 16.0377 13.9606L16.0642 13.9762L16.2296 14.0707C16.249 14.0819 16.2687 14.0915 16.2886 14.1019L16.4067 14.1629C16.4127 14.166 16.4186 14.1682 16.4242 14.1711C16.5039 14.2112 16.584 14.2491 16.666 14.2857C16.6835 14.2935 16.7014 14.3006 16.7194 14.3081C16.785 14.3367 16.8512 14.364 16.9179 14.3901L17.0029 14.4219C17.0632 14.4442 17.1239 14.4657 17.1849 14.4864L17.267 14.513C17.3537 14.5406 17.4395 14.5751 17.53 14.5905C22.1905 15.3769 23.2667 11.7221 23.2667 11.7221C22.2969 13.1445 20.4187 13.8236 18.4141 13.2939C18.3255 13.2702 18.2375 13.2442 18.1502 13.2159C18.1235 13.2076 18.0974 13.1989 18.0709 13.1922C18.009 13.1718 17.9474 13.1502 17.8864 13.1275L17.8029 13.0959C17.736 13.0722 17.6699 13.0427 17.6045 13.0144C17.5865 13.0065 17.5685 12.9995 17.5509 12.9912C17.4686 12.9553 17.3875 12.9169 17.3075 12.8761C17.2664 12.8556 17.226 12.8341 17.1855 12.8127L17.1151 12.776C17.0632 12.7474 17.0117 12.7179 16.9609 12.6874L16.924 12.6637C16.8611 12.6261 16.7989 12.5874 16.7374 12.5475C16.7184 12.5351 16.7 12.5239 16.6811 12.5092L16.5601 12.4277C16.4747 12.3672 16.3907 12.3047 16.3082 12.2401L16.2515 12.1947C15.3742 11.4892 14.6786 10.5252 14.3481 9.43199C14.0015 8.29787 14.0764 7.02549 14.6789 5.99274L13.9365 7.05312ZM17.1947 5.90299C16.6626 6.70062 16.6105 7.69112 16.9821 8.57199C17.3715 9.50687 18.1694 10.2405 19.1005 10.5881C19.1389 10.6027 19.1774 10.6156 19.2186 10.629L19.2697 10.6455C19.3245 10.663 19.3791 10.6832 19.4356 10.6942C22.0091 11.2005 22.707 9.34924 22.8927 9.07674C22.2812 9.97349 21.2537 10.1887 19.993 9.87712C19.8937 9.85224 19.7839 9.81562 19.6857 9.78124C19.5624 9.7366 19.4415 9.6854 19.3236 9.62787C19.0992 9.51782 18.8865 9.38553 18.6885 9.23299C17.5579 8.36112 16.8569 6.69824 17.5931 5.34399M11.5114 22.8352L11.3371 23.4534L11.5114 22.8355V22.8352ZM16.6347 21.42H15.8361C15.8135 21.4208 15.7917 21.4289 15.7741 21.4432C15.7565 21.4574 15.7439 21.4769 15.7384 21.4989L15.1712 24.1232C15.1656 24.1451 15.1531 24.1646 15.1356 24.1788C15.118 24.1929 15.0963 24.201 15.0737 24.2019H14.5084C13.9489 24.2019 14.0136 23.8151 14.1302 23.2851L14.1339 23.2691L14.2016 22.9076L14.2309 22.7587L14.489 21.4989C14.4914 21.4893 14.4916 21.4792 14.4895 21.4695C14.4873 21.4598 14.483 21.4507 14.4767 21.4431C14.4704 21.4354 14.4624 21.4292 14.4534 21.4252C14.4443 21.4211 14.4344 21.4193 14.4245 21.4197H13.6046C13.582 21.4205 13.5603 21.4287 13.5427 21.4429C13.5252 21.4571 13.5127 21.4767 13.5072 21.4986L13.1379 23.2504C12.9347 24.1775 12.9886 25.0617 14.0925 25.0894L14.1244 25.09H15.8567C15.8794 25.0892 15.9011 25.081 15.9187 25.0668C15.9363 25.0526 15.9488 25.0331 15.9544 25.0111L16.7014 21.4986C16.7109 21.4552 16.6817 21.4197 16.6376 21.4197L16.6347 21.42ZM19.8214 24.2111C19.8659 24.2111 19.8922 24.2465 19.8859 24.29L19.8084 24.6692L19.8214 24.2111Z" fill="white"/>
<path d="M17.6847 23.7228C17.6841 23.6812 17.7314 23.6098 17.7757 23.6098L17.676 23.6082C17.6287 24.0604 17.6847 23.7228 17.6847 23.7228ZM19.8214 24.2109C19.8659 24.2109 19.8922 24.2463 19.8859 24.2898L19.7956 24.7307L19.8214 24.2109ZM18.3355 25.1352H18.2981H18.3402H18.3355ZM6.59312 23.7322L6.71725 23.1822L6.57549 23.8107L6.55887 23.8896L6.59337 23.7318L6.59312 23.7322ZM8.07837 21.4108H7.20112C7.17842 21.4116 7.15659 21.4197 7.13885 21.4339C7.12111 21.4481 7.1084 21.4676 7.10262 21.4896L6.93624 22.2219C6.93348 22.2314 6.93304 22.2414 6.93495 22.2511C6.93687 22.2608 6.94109 22.2699 6.94725 22.2776C6.95342 22.2853 6.96135 22.2915 6.97037 22.2955C6.9794 22.2995 6.98926 22.3013 6.99912 22.3007H7.88324C7.90585 22.2998 7.92757 22.2917 7.94518 22.2775C7.9628 22.2633 7.97536 22.2438 7.98099 22.2219L8.14175 21.4878C8.15112 21.4447 8.12274 21.4092 8.07799 21.4092L8.07837 21.4108ZM5.33899 26.5764L6.06249 26.5822C5.84887 26.5822 5.49625 26.5782 5.33875 26.5763L5.33899 26.5764Z" fill="white"/>
<path d="M7.82415 22.5532H6.93977C6.91707 22.5541 6.89524 22.5621 6.8775 22.5763C6.85976 22.5905 6.84706 22.61 6.84127 22.632L6.59315 23.732L6.55865 23.8899L6.3224 25.0129C6.31077 25.0652 6.29652 25.1171 6.2799 25.1681C6.2799 25.1681 6.11452 25.6596 5.83715 25.6541L5.5619 25.649C5.53931 25.6496 5.51749 25.6574 5.49964 25.6712C5.48178 25.6851 5.46882 25.7043 5.46265 25.726L5.27952 26.4969C5.27666 26.5063 5.27609 26.5163 5.27787 26.526C5.27966 26.5357 5.28374 26.5448 5.28977 26.5526C5.29581 26.5603 5.30363 26.5666 5.31256 26.5707C5.3215 26.5749 5.3313 26.5768 5.34115 26.5764L6.0649 26.5822C6.75865 26.5822 7.12415 26.1977 7.35865 25.092L7.89027 22.6347C7.89977 22.5916 7.8709 22.5561 7.82652 22.5561L7.82415 22.5532ZM20.3849 25.0904C20.3405 25.0904 20.314 25.055 20.3211 25.0115L20.9863 21.896L20.3849 25.0904Z" fill="white"/>
<path d="M20.3308 25.051C20.3254 25.0292 20.3285 24.976 20.3379 24.9327L20.6535 23.4537L20.3209 25.0115C20.3114 25.055 20.3403 25.0904 20.3847 25.0904H20.4655C20.4212 25.0904 20.336 25.0726 20.3308 25.051ZM21.257 25.0726C21.2329 25.0821 21.1767 25.0904 21.1323 25.0904H21.213C21.2356 25.0894 21.2572 25.0812 21.2747 25.067C21.2921 25.0527 21.3045 25.0331 21.3099 25.0112L21.326 24.9324C21.3173 24.9757 21.2788 25.063 21.2552 25.0726H21.257ZM24.0682 22.1046L24.1048 22.2559C24.115 22.2991 24.0869 22.3342 24.0427 22.3345M21.5625 23.7595L21.5952 23.6026L21.722 23.0084L21.5784 23.6812L21.5625 23.7592V23.7595ZM20.9972 21.8447L20.9695 21.9746L20.6538 23.4537L20.9865 21.896L20.9972 21.845V21.8447Z" fill="white"/>
<path d="M24.105 22.256L24.0684 22.1047L24.0141 21.8685C23.9422 21.5896 23.7315 21.4282 23.2736 21.4282L21.166 21.4269C21.1434 21.4276 21.1217 21.4357 21.1041 21.45C21.0866 21.4642 21.0741 21.4838 21.0687 21.5057L21.0361 21.6601L20.9889 21.8932L20.3405 24.9301C20.331 24.9736 20.328 25.0246 20.3334 25.0482C20.3389 25.0719 20.4239 25.0877 20.4681 25.0877H21.1344C21.1787 25.0877 21.2347 25.0796 21.2591 25.07C21.2835 25.0602 21.3191 24.9755 21.33 24.9296L21.5829 23.6787L21.8534 22.4114C21.859 22.3895 21.8714 22.3701 21.889 22.3559C21.9065 22.3417 21.9282 22.3336 21.9507 22.3327L24.0471 22.3317C24.0914 22.3317 24.1195 22.2964 24.1092 22.2531L24.105 22.256ZM26.804 20.8872L26.6426 20.8879H25.9716C25.9471 20.8894 25.9231 20.8961 25.9013 20.9076C25.8796 20.9191 25.8605 20.9351 25.8454 20.9545L24.3616 23.1282C24.3366 23.1649 24.308 23.1595 24.2979 23.1165L24.1886 22.6375C24.1828 22.6156 24.17 22.5961 24.1523 22.5819C24.1346 22.5678 24.1128 22.5597 24.0901 22.5589H23.1364C23.0919 22.5589 23.0655 22.5936 23.0777 22.6364L23.503 24.1339C23.5152 24.1764 23.516 24.2465 23.5054 24.2897L23.3164 25.0145C23.3131 25.0238 23.3122 25.0337 23.3138 25.0434C23.3154 25.0531 23.3194 25.0623 23.3255 25.07C23.3315 25.0777 23.3394 25.0839 23.3484 25.0878C23.3575 25.0918 23.3673 25.0934 23.3771 25.0926H24.3221C24.3449 25.0917 24.3669 25.0837 24.3849 25.0697C24.403 25.0557 24.4163 25.0365 24.4229 25.0146L24.6119 24.29C24.6266 24.239 24.6499 24.1907 24.6804 24.1474L27.0917 20.9499C27.1185 20.9144 27.1041 20.8856 27.0596 20.886L26.8069 20.8877L26.804 20.8872ZM19.2252 22.7625C19.2196 22.8097 19.1752 22.8452 19.1307 22.8452H17.921C17.8792 22.8452 17.858 22.8169 17.8644 22.7814L17.8652 22.775L17.8707 22.7545C17.9889 22.4474 18.2216 22.2457 18.6636 22.2457C19.1615 22.2457 19.2586 22.4891 19.2249 22.7625H19.2252ZM18.8704 21.3666C17.3181 21.3666 16.9502 22.3089 16.744 23.2599C16.5375 24.2292 16.5554 25.1359 18.1616 25.1359H18.4162L18.6124 25.1351L19.6345 25.129C19.6569 25.128 19.6784 25.1197 19.6957 25.1054C19.7131 25.0912 19.7253 25.0717 19.7306 25.0499L19.8859 24.291C19.8949 24.2475 19.8659 24.212 19.8214 24.212H18.3772C17.8031 24.212 17.6324 24.0594 17.6951 23.6107H20.0036C20.0222 23.6105 20.0403 23.6047 20.0555 23.5941C20.0707 23.5835 20.0825 23.5686 20.0891 23.5512C20.0917 23.5448 20.0936 23.538 20.0947 23.5311C20.4374 22.2387 20.3391 21.3676 18.8709 21.3676L18.8704 21.3666ZM11.5331 22.7574L11.5114 22.8346L11.3371 23.4526L11.1627 24.0702C11.1555 24.092 11.1418 24.1111 11.1235 24.1249C11.1052 24.1387 11.0832 24.1467 11.0602 24.1477H10.1372C9.43736 24.1477 9.26699 23.6004 9.43736 22.793C9.60749 21.9672 9.94186 21.4537 10.6306 21.4019C11.5719 21.331 11.76 21.993 11.5331 22.7571V22.7574ZM12.1659 24.1005C12.1659 24.1005 12.6006 23.0444 12.6999 22.4341C12.8345 21.6172 12.4259 20.4329 10.8464 20.4329C9.27574 20.4329 8.59386 21.5636 8.33386 22.7956C8.07386 24.0336 8.41461 25.1196 9.97586 25.1111L12.3589 25.1024C12.3817 25.1012 12.4037 25.0931 12.4217 25.079C12.4398 25.065 12.4531 25.0457 12.4599 25.0239L12.6606 24.2589C12.6638 24.2496 12.6647 24.2397 12.6632 24.23C12.6616 24.2203 12.6578 24.2112 12.6519 24.2034C12.6459 24.1955 12.6381 24.1892 12.6291 24.1852C12.6201 24.1812 12.6102 24.1795 12.6004 24.1804L12.216 24.178C12.1782 24.1777 12.1569 24.1535 12.1611 24.1214C12.162 24.1152 12.1636 24.1092 12.1659 24.1034V24.1005Z" fill="white"/>
<path d="M19.9402 23.3938C19.9402 23.4078 19.9346 23.4213 19.9247 23.4312C19.9148 23.4411 19.9013 23.4467 19.8873 23.4467C19.8732 23.4467 19.8598 23.4411 19.8499 23.4312C19.8399 23.4213 19.8344 23.4078 19.8344 23.3938C19.8344 23.3797 19.8399 23.3663 19.8499 23.3563C19.8598 23.3464 19.8732 23.3408 19.8873 23.3408C19.9013 23.3408 19.9148 23.3464 19.9247 23.3563C19.9346 23.3663 19.9402 23.3797 19.9402 23.3938Z" fill="white"/>
</g>
<defs>
<linearGradient id="paint0_linear_66_137" x1="0.15686" y1="0" x2="32.1569" y2="32" gradientUnits="userSpaceOnUse">
<stop stop-color="#FF5C00"/>
<stop offset="1" stop-color="#FF0F00"/>
</linearGradient>
<clipPath id="clip0_66_137">
<rect width="32" height="32" fill="white" transform="translate(0.15686)"/>
</clipPath>
</defs>
</svg>
