<svg width="24" height="24" viewBox="0 0 24 24" fill="none" xmlns="http://www.w3.org/2000/svg">
<path d="M23.2 12.1342C23.2 14.7854 18.1856 16.9342 12 16.9342C5.81439 16.9342 0.799988 14.7854 0.799988 12.1342C0.799988 9.48303 5.81439 7.33423 12 7.33423C18.1856 7.33423 23.2 9.48303 23.2 12.1342Z" stroke="white"/>
<path d="M6.66555 21.9823C8.99675 23.2463 13.2736 19.8591 16.2208 14.4207C19.1664 8.98068 19.6656 3.54868 17.3344 2.28628C15.0032 1.02228 10.7264 4.40948 7.77915 9.84788C4.83355 15.2879 4.33435 20.7199 6.66555 21.9823Z" stroke="white"/>
<path d="M17.3344 21.9823C15.0032 23.2463 10.7264 19.8591 7.77915 14.4207C4.83355 8.98068 4.33435 3.54868 6.66555 2.28628C8.99675 1.02228 13.2736 4.40948 16.2208 9.84788C19.1664 15.2879 19.6656 20.7199 17.3344 21.9823Z" stroke="white"/>
<path d="M10.4 12.1342C10.4 12.5585 10.5686 12.9655 10.8687 13.2656C11.1687 13.5656 11.5757 13.7342 12 13.7342C12.4244 13.7342 12.8313 13.5656 13.1314 13.2656C13.4315 12.9655 13.6 12.5585 13.6 12.1342C13.6 11.7098 13.4315 11.3029 13.1314 11.0028C12.8313 10.7028 12.4244 10.5342 12 10.5342C11.5757 10.5342 11.1687 10.7028 10.8687 11.0028C10.5686 11.3029 10.4 11.7098 10.4 12.1342Z" stroke="white"/>
</svg>
