<svg width="32" height="32" viewBox="0 0 32 32" fill="none" xmlns="http://www.w3.org/2000/svg">
<path fill-rule="evenodd" clip-rule="evenodd" d="M0.304749 14.039C0.304749 14.2147 0.356499 14.3307 0.385499 14.4435C0.574499 15.1767 0.980749 15.806 1.46275 16.38C2.14925 17.198 2.99 17.8565 3.85125 18.4757C4.59825 19.0127 5.3605 19.5377 6.1105 20.0707C6.23925 20.1622 6.361 20.2675 6.50075 20.3797C6.3805 20.4447 6.2805 20.502 6.1765 20.5548C5.18675 21.0568 4.2345 21.6195 3.35675 22.3013C2.82775 22.7122 2.31625 23.149 1.955 23.7197C1.37375 24.6377 1.168 25.6157 1.60125 26.66C1.72775 26.965 1.92075 27.2285 2.193 27.4233C2.28125 27.4862 2.38025 27.5487 2.4835 27.5732C2.748 27.6355 3.0175 27.6763 3.28525 27.7255L4.0435 27.725C4.882 27.6502 5.64525 27.363 6.335 26.887C7.413 26.143 8.13925 25.1455 8.4515 23.8652C8.6785 22.9347 8.68775 22.0033 8.42025 21.077C8.39465 20.9912 8.36511 20.9066 8.33175 20.8235C8.29925 20.7402 8.261 20.6593 8.216 20.5555L9.935 19.567L9.96075 19.589C9.9295 19.6913 9.89625 19.7933 9.868 19.8965C9.66375 20.6425 9.528 21.4015 9.57675 22.1758C9.62875 23.0008 9.859 23.773 10.342 24.4622C10.7325 25.0198 11.663 25.0405 12.078 24.481C12.2252 24.2823 12.368 24.0745 12.4752 23.8528C12.7555 23.274 13.015 22.685 13.2827 22.1L13.3295 21.993C13.3102 22.27 13.2877 22.5133 13.2775 22.7568C13.2615 23.137 13.2837 23.515 13.4137 23.8768C13.525 24.1863 13.7142 24.4175 14.0687 24.4583C14.3112 24.486 14.5045 24.375 14.6827 24.2342C14.9589 24.016 15.1878 23.7439 15.3555 23.4345C15.8307 22.5618 16.3187 21.6943 16.7495 20.7995C17.2155 19.8317 17.623 18.8357 18.0557 17.8515L18.1272 17.677C18.2295 18.0787 18.3007 18.4722 18.432 18.8447C18.5845 19.277 18.7732 19.699 18.9787 20.1092C19.076 20.303 19.0647 20.4287 18.93 20.5912C18.366 21.2712 17.8117 21.9595 17.257 22.647C17.1342 22.7987 17.012 22.9532 16.9097 23.119C16.8477 23.2237 16.8069 23.3395 16.7897 23.46C16.7725 23.5709 16.7989 23.6841 16.8634 23.776C16.9278 23.8679 17.0254 23.9312 17.1355 23.9527C17.3578 24.0006 17.5857 24.0169 17.8125 24.001C18.5867 23.944 19.2897 23.6723 19.9112 23.2118C20.7165 22.6152 20.975 21.8013 20.78 20.8365C20.7272 20.5748 20.634 20.3203 20.5432 20.068C20.5025 19.9543 20.4997 19.8745 20.574 19.7685C21.2177 18.8492 21.7677 17.874 22.2792 16.8762C22.2995 16.837 22.3202 16.7978 22.3557 16.7558C22.5215 17.6183 22.771 18.4495 23.218 19.2038C22.99 19.4235 22.7642 19.6228 22.56 19.8423C22.1102 20.3258 21.7202 20.8507 21.5167 21.491C21.4292 21.767 21.362 22.0475 21.401 22.3423C21.4615 22.8 21.8365 23.0975 22.2867 22.9932C23.2502 22.7703 24.082 22.3162 24.6897 21.512C25.0987 20.9705 25.136 20.3665 24.9647 19.7337C24.9177 19.5617 24.862 19.3925 24.802 19.1952C25.0397 19.1215 25.2715 19.033 25.5112 18.9783C26.756 18.6943 27.9872 18.7438 29.1867 19.1933C29.887 19.4558 30.4527 19.895 30.7882 20.586C31.198 21.4307 30.9715 22.2323 30.1752 22.7663C30.101 22.816 30.016 22.8552 29.9545 22.9175C29.9348 22.9403 29.9201 22.967 29.9112 22.9959C29.9024 23.0247 29.8997 23.0551 29.9032 23.085C29.9085 23.1157 29.9897 23.1542 30.0365 23.1537C30.2982 23.1517 30.5105 23.0145 30.7142 22.8735C31.2247 22.5203 31.5972 22.045 31.6775 21.4193L31.6932 21.3722L31.674 20.9648C31.6662 20.9412 31.6797 20.918 31.678 20.9002C31.5695 19.989 31.0827 19.2823 30.3747 18.7283C29.5547 18.087 28.5865 17.823 27.5625 17.7812C26.732 17.7455 25.9026 17.8732 25.1212 18.157C24.897 18.2382 24.6747 18.3345 24.4492 18.4252C24.419 18.3705 24.3865 18.318 24.3597 18.2638C24.1282 17.7898 23.8477 17.3367 23.7857 16.7932C23.7417 16.4072 23.6877 16.0218 23.7795 15.64C23.8677 15.2727 23.9827 14.9118 24.091 14.5495C24.1467 14.363 24.1075 14.2585 23.9295 14.1745C23.8675 14.1436 23.8013 14.1218 23.733 14.11C23.2955 14.0465 22.864 14.0828 22.4402 14.206C22.2902 14.2498 22.1812 14.3337 22.148 14.4998C22.129 14.595 22.0902 14.6862 22.0632 14.7802C21.9525 15.171 21.874 15.5693 21.695 15.9415C21.2465 16.8752 20.7345 17.7738 20.2105 18.6658C20.1537 18.762 20.094 18.8565 20.0225 18.9732C19.8385 18.5882 19.6422 18.2427 19.5827 17.8377C19.5155 17.3797 19.4625 16.9225 19.5765 16.468C19.6612 16.129 19.772 15.7963 19.874 15.4618C19.9222 15.3027 19.9 15.2192 19.756 15.1355C19.6832 15.0933 19.601 15.0557 19.519 15.0435C19.0704 14.9752 18.612 15.0127 18.1805 15.153C18.0447 15.197 17.9735 15.2847 17.932 15.4248C17.81 15.8378 17.706 16.2607 17.5347 16.6535C16.8412 18.2435 16.1277 19.8252 15.415 21.4067C15.2662 21.737 15.092 22.0557 14.9242 22.3773C14.8817 22.4587 14.8197 22.5305 14.7667 22.607C14.7242 22.5568 14.7077 22.5222 14.708 22.4877C14.7092 22.2845 14.685 22.0753 14.7237 21.8787C14.8427 21.2845 14.9743 20.6927 15.1182 20.104C15.2357 19.6175 15.3725 19.1355 15.5027 18.6523C15.5465 18.4905 15.5472 18.3393 15.431 18.2033C15.2357 17.9755 14.8277 17.9255 14.5857 18.101L14.4787 18.1615L14.4995 17.989C14.5505 17.6193 14.5607 17.2507 14.4592 16.8865C14.3327 16.4325 14.0087 16.1712 13.5377 16.1857C13.3182 16.1925 13.0877 16.23 12.8845 16.31C12.0297 16.645 11.3725 17.2382 10.813 17.952C10.7611 18.0183 10.6968 18.0738 10.6237 18.1155C9.9005 18.5165 9.175 18.9125 8.44975 19.31L7.6425 19.7523C7.426 19.5458 7.22925 19.3315 7.006 19.1497C6.32425 18.5938 5.6315 18.0515 4.945 17.5018C4.3365 17.0145 3.747 16.507 3.296 15.8617C2.9605 15.3818 2.74425 14.8565 2.7235 14.263C2.69725 13.5067 2.91175 12.8158 3.29675 12.1725C3.78925 11.3495 4.461 10.689 5.1995 10.0907C5.98075 9.45825 6.82575 8.92125 7.7015 8.431C8.92675 7.74525 10.187 7.13825 11.5382 6.7375C12.9237 6.3265 14.3295 6.09125 15.7795 6.25525C16.3495 6.31975 16.903 6.45025 17.4112 6.729C17.8005 6.94225 18.1197 7.2215 18.2682 7.658C18.4147 8.0875 18.4102 8.52275 18.3087 8.959C18.1025 9.8425 17.6187 10.5708 17.01 11.2215C16.0115 12.2882 14.7935 13.0145 13.4222 13.4943C12.6338 13.7705 11.8135 13.9454 10.981 14.015C10.2987 14.0723 9.63075 14.0118 8.98475 13.7745C8.557 13.6172 8.1845 13.3767 7.885 13.0278C7.8315 12.9653 7.763 12.8975 7.66325 12.956C7.5655 13.0135 7.54825 13.1065 7.581 13.2008C7.63575 13.3573 7.68625 13.5202 7.7715 13.6602C7.98575 14.0115 8.29825 14.2662 8.64225 14.4847C9.303 14.905 10.0415 15.0463 10.8072 15.079C11.9692 15.1293 13.103 14.9558 14.2207 14.644C15.8165 14.199 17.204 13.413 18.3167 12.173C19.2432 11.1405 19.905 9.97525 20.0467 8.56825C20.116 7.8815 20.0422 7.20875 19.7207 6.58225C19.372 5.9035 18.8175 5.39875 18.1545 5.051C17.189 4.54475 16.147 4.25 15.0715 4.25H13.994C12.6915 4.25 11.4322 4.62325 10.2082 5.0685C9.28175 5.40575 8.37325 5.80375 7.49125 6.24425C5.5705 7.204 3.78175 8.36125 2.3125 9.9525C1.5805 10.7453 0.960749 11.62 0.604249 12.65C0.49665 12.9575 0.403959 13.27 0.326499 13.5865M7.28625 22.5898C7.203 23.7045 6.69775 24.6082 5.872 25.3403C5.4075 25.7518 4.87475 26.0448 4.25425 26.1478C4.02925 26.185 3.799 26.194 3.58075 26.1007C3.2695 25.9678 3.19975 25.6915 3.19375 25.3972C3.1845 24.9282 3.34875 24.5042 3.574 24.1007C3.868 23.5747 4.299 23.1737 4.75925 22.7992C5.48425 22.209 6.27075 21.7095 7.07625 21.238L7.137 21.213C7.2615 21.673 7.32075 22.1273 7.28625 22.5898ZM13.5757 17.745C13.517 18.101 13.4435 18.4572 13.3395 18.8022C12.98 19.9965 12.5182 21.1537 12.019 22.2955C11.9267 22.5068 11.7925 22.6995 11.6757 22.8997C11.6559 22.9305 11.6321 22.9586 11.605 22.9832C11.4605 23.126 11.3235 23.1185 11.2505 22.9317C11.1655 22.7148 11.1132 22.4825 11.0682 22.2528C11.038 22.0985 11.0452 21.9365 11.0357 21.7785C11.0455 20.655 11.3882 19.634 11.9697 18.6835C12.2095 18.2915 12.4705 17.918 12.8692 17.67C12.9933 17.5929 13.1275 17.5335 13.268 17.4935C13.4805 17.4338 13.611 17.532 13.5757 17.745ZM17.8667 23.212L19.409 21.4112C19.4732 22.08 18.3365 23.415 17.8667 23.212ZM22.7925 22.0002C22.6835 22.0627 22.5647 22.1077 22.453 22.1655C22.3507 22.2185 22.317 22.165 22.314 22.077C22.3125 22.0161 22.3203 21.9553 22.3372 21.8967C22.5455 21.1622 22.9287 20.5352 23.499 20.0252L23.539 20.0047C23.8102 20.7635 23.4967 21.5968 22.7925 22.0002Z" fill="#CB6699"/>
</svg>
